<?xml version="1.0" encoding="UTF-8"?>
<svg id="Layer_2" data-name="Layer 2" xmlns="http://www.w3.org/2000/svg" viewBox="0 0 454.08 396.46">
  <defs>
    <style>
      .cls-1 {
        fill: #c1272d;
      }

      .cls-1, .cls-2 {
        stroke-width: 0px;
      }

      .cls-2 {
        fill: #fff;
      }
    </style>
  </defs>
  <g id="Layer_1-2" data-name="Layer 1">
    <g>
      <g>
        <path class="cls-2" d="M43.54,144.73c0,5.14,11.9,5.76,11.9,15.27,0,8.5-9.5,11.38-16.47,11.38-3.22,0-5.76-.58-8.16-1.63l-4.18,1.58,3.31-12.48,3.65,8.26c1.3.77,2.74,1.3,4.46,1.3,4.18,0,6.14-2.83,6.14-5.18,0-5.57-11.47-6.38-11.47-14.79,0-6.77,7.39-11.62,16.13-11.62,2.93,0,5.14.53,7.06,1.3l3.84-1.3-3.22,12.1-3.94-8.74c-.86-.38-1.82-.58-2.93-.58-4.46,0-6.14,3.12-6.14,5.14Z"/>
        <path class="cls-2" d="M68.4,163.84c3.22-.34,6.14-1.54,9.74-4.13l.14.24c-3.89,8.26-10.42,11.42-14.93,11.42-3.89,0-6-2.4-6-7.06,0-9.65,8.98-18.91,18.39-18.91,3.55,0,6.34,1.25,6.34,3.89s-2.98,4.37-5.9,4.42l-1.49-6c-3.46,2.21-6.91,9.12-6.29,16.13Z"/>
        <path class="cls-2" d="M110.07,149.63c0,4.22-4.8,7.2-8.93,6.82l-.82-3.12c-3.94,2.69-8.59,10.27-11.81,17.57h-10.56l8.02-18.1c-1.2.29-2.45.91-3.6,1.73l-.14-.24c5.62-7.34,10.27-8.88,13.06-8.88,3.17,0,3.31,1.87,2.54,3.6l-4.18,8.93c5.09-9.36,8.26-12.53,12.19-12.53,2.64,0,4.22,1.73,4.22,4.22Z"/>
        <path class="cls-2" d="M134.69,154.67c0,9.94-10.37,16.71-18.1,16.71-5.09,0-9.41-2.88-9.41-9.26,0-9.89,10.32-16.71,18.05-16.71,5.14,0,9.46,2.88,9.46,9.26ZM124.76,150.69c0-.91-.05-1.82-.19-2.54-3.46,3.26-7.49,10.8-7.49,17.95,0,.96.1,1.82.19,2.59,3.5-3.26,7.49-10.8,7.49-18Z"/>
        <path class="cls-2" d="M149.09,162.5c-4.94,7.34-9.89,8.88-12.67,8.88-3.07,0-3.41-1.73-2.74-3.55l9.79-27.75c-1.25.24-2.45.91-3.46,1.68l-.14-.24c4.94-7.3,9.84-8.83,12.63-8.83,3.07,0,3.46,1.82,2.88,3.55l-9.84,27.75c1.1-.29,2.35-.91,3.41-1.73l.14.24Z"/>
        <path class="cls-2" d="M164.4,162.5c-4.94,7.34-9.89,8.88-12.67,8.88-3.07,0-3.41-1.73-2.74-3.55l9.79-27.75c-1.25.24-2.45.91-3.46,1.68l-.14-.24c4.94-7.3,9.84-8.83,12.63-8.83,3.07,0,3.46,1.82,2.88,3.55l-9.84,27.75c1.1-.29,2.35-.91,3.41-1.73l.14.24Z"/>
        <path class="cls-2" d="M175.73,163.98l6.43-14.4h-4.46l19.59-10.27-2.93,6.58h5.95l-1.63,3.7h-5.95l-6.43,14.4c2.64-.29,5.33-1.01,7.97-2.35l.14.24c-5.09,7.06-10.71,9.5-14.83,9.5-5.42,0-5.23-4.27-3.84-7.39Z"/>
        <path class="cls-2" d="M224.59,154.67c0,9.94-10.37,16.71-18.1,16.71-5.09,0-9.41-2.88-9.41-9.26,0-9.89,10.32-16.71,18.05-16.71,5.14,0,9.46,2.88,9.46,9.26ZM214.66,150.69c0-.91-.05-1.82-.19-2.54-3.46,3.26-7.49,10.8-7.49,17.95,0,.96.1,1.82.19,2.59,3.5-3.26,7.49-10.8,7.49-18Z"/>
        <path class="cls-2" d="M245.14,160.19c-.19,1.39-.29,2.78-.14,4.03,3.22-.29,7.3-1.68,10.9-4.13l.14.24c-3.89,8.35-11.09,11.04-15.41,11.04s-6.29-2.69-6.29-7.06c0-9.89,9.46-18.91,19.44-18.91,4.75,0,6.72,2.06,6.72,4.7,0,4.27-5.23,7.87-15.36,10.08ZM245.52,157.98c4.8-2.35,6.91-6.34,6.91-8.3,0-.67-.24-1.1-.96-1.1-2.26,0-4.8,4.56-5.95,9.41Z"/>
        <path class="cls-2" d="M277.25,155.92l4.32,9.46c.96-.91,1.82-2.02,2.54-3.31h.24c-1.49,6.48-4.51,9.31-8.5,9.31-1.97,0-3.17-.77-4.56-3.6l-1.82-3.98c-4.03,5.52-6.38,7.58-9.27,7.58-2.54,0-3.89-1.54-3.89-3.65,0-3.12,2.93-5.14,6.19-5.42l1.44,3.07c1.54-1.2,2.74-2.21,4.42-4.03l-4.46-9.94c-1.01.91-1.87,2.06-2.59,3.36h-.24c1.49-6.53,4.51-9.36,8.5-9.36,2.02,0,3.22.77,4.56,3.65l2.06,4.51c4.32-5.9,6.72-8.16,9.7-8.16,2.5,0,3.84,1.54,3.84,3.65,0,3.12-2.93,5.14-6.14,5.42l-1.44-3.07c-1.63,1.3-2.98,2.4-4.9,4.51Z"/>
        <path class="cls-2" d="M296.11,171.09l-2.69,7.3,2.16,4.03h-16.27l3.12-2.88,9.84-26.79c-1.06.53-2.16,1.1-3.36,1.78l-.14-.24c1.39-1.34,2.78-2.5,4.22-3.55l2.4-6.48,11.81-3.6-1.78,4.8c6.53-.86,11.47,1.87,11.47,7.92,0,10.08-13.92,16.71-20.79,17.71ZM303.79,150.01l-6.67,18.24c4.85-2.11,8.88-8.21,8.88-13.54,0-2.4-.67-4.03-2.21-4.7Z"/>
        <path class="cls-2" d="M330.62,162.5c-4.94,7.34-9.89,8.88-12.67,8.88-3.07,0-3.41-1.73-2.74-3.55l9.79-27.75c-1.25.24-2.45.91-3.46,1.68l-.14-.24c4.94-7.3,9.84-8.83,12.62-8.83,3.07,0,3.46,1.82,2.88,3.55l-9.84,27.75c1.1-.29,2.35-.91,3.41-1.73l.14.24Z"/>
        <path class="cls-2" d="M360.1,154.67c0,9.94-10.37,16.71-18.1,16.71-5.09,0-9.41-2.88-9.41-9.26,0-9.89,10.32-16.71,18.05-16.71,5.14,0,9.46,2.88,9.46,9.26ZM350.16,150.69c0-.91-.05-1.82-.19-2.54-3.46,3.26-7.49,10.8-7.49,17.95,0,.96.1,1.82.19,2.59,3.5-3.26,7.49-10.8,7.49-18Z"/>
        <path class="cls-2" d="M390.34,149.63c0,4.22-4.8,7.2-8.93,6.82l-.82-3.12c-3.94,2.69-8.59,10.27-11.81,17.57h-10.56l8.02-18.1c-1.2.29-2.45.91-3.6,1.73l-.14-.24c5.62-7.34,10.27-8.88,13.06-8.88,3.17,0,3.31,1.87,2.54,3.6l-4.18,8.93c5.09-9.36,8.26-12.53,12.19-12.53,2.64,0,4.22,1.73,4.22,4.22Z"/>
        <path class="cls-2" d="M397.73,160.19c-.19,1.39-.29,2.78-.14,4.03,3.22-.29,7.3-1.68,10.9-4.13l.14.24c-3.89,8.35-11.09,11.04-15.41,11.04s-6.29-2.69-6.29-7.06c0-9.89,9.46-18.91,19.44-18.91,4.75,0,6.72,2.06,6.72,4.7,0,4.27-5.23,7.87-15.36,10.08ZM398.11,157.98c4.8-2.35,6.91-6.34,6.91-8.3,0-.67-.24-1.1-.96-1.1-2.26,0-4.8,4.56-5.95,9.41Z"/>
        <path class="cls-2" d="M411.74,166.96c0-3.55,3.84-6.82,7.2-6.82,2.64,0,4.42,2.02,4.42,4.46,0,3.55-3.84,6.77-7.2,6.77-2.69,0-4.42-2.02-4.42-4.42Z"/>
        <path class="cls-2" d="M427.1,166.96c0-3.55,3.84-6.82,7.2-6.82,2.64,0,4.42,2.02,4.42,4.46,0,3.55-3.84,6.77-7.2,6.77-2.69,0-4.42-2.02-4.42-4.42Z"/>
        <path class="cls-2" d="M442.46,166.96c0-3.55,3.84-6.82,7.2-6.82,2.64,0,4.42,2.02,4.42,4.46,0,3.55-3.84,6.77-7.2,6.77-2.69,0-4.42-2.02-4.42-4.42Z"/>
      </g>
      <polygon class="cls-2" points="279.56 47.44 258.52 0 207.88 47.44 229.02 47.44 211.45 103.73 240.51 103.73 258.07 47.44 279.56 47.44"/>
      <polygon class="cls-2" points="148.58 262.47 169.63 309.91 220.27 262.47 199.13 262.47 216.69 206.18 187.64 206.18 170.08 262.47 148.58 262.47"/>
    </g>
    <g>
      <path class="cls-1" d="M11.52,361.44c0,6.29,3.46,8.69,8.26,8.69,2.5,0,6.1-.67,10.42-3.46l.24.24c-4.56,7.2-11.04,10.56-17.33,10.56-7.87,0-13.1-5.28-13.1-13.68,0-12.96,12.53-20.88,24.48-20.88,2.83,0,5.71.43,8.06,1.34l2.74-.96-3.46,13.06-3.5-10.22c-1.06-.29-2.11-.43-3.02-.43-6.91,0-13.78,6.91-13.78,15.75Z"/>
      <path class="cls-1" d="M45.55,368.6c-4.94,7.34-9.89,8.88-12.67,8.88-3.07,0-3.41-1.73-2.74-3.55l9.79-27.75c-1.25.24-2.45.91-3.46,1.68l-.14-.24c4.94-7.3,9.84-8.83,12.63-8.83,3.07,0,3.46,1.82,2.88,3.55l-9.84,27.75c1.1-.29,2.35-.91,3.41-1.73l.14.24Z"/>
      <path class="cls-1" d="M61.73,368.6c-5.62,7.39-10.71,8.88-13.54,8.88-3.02,0-3.26-1.73-2.45-3.55l6.67-15.03c-1.2.29-2.5.91-3.6,1.73l-.14-.24c5.62-7.34,10.71-8.88,13.49-8.88,3.17,0,3.26,1.92,2.54,3.6l-6.72,14.98c1.15-.29,2.45-.91,3.6-1.73l.14.24ZM57.55,345.17c0-3.26,3.5-6.14,6.62-6.14,2.3,0,3.94,1.82,3.94,4.03,0,3.22-3.5,6.14-6.62,6.14-2.35,0-3.94-1.82-3.94-4.03Z"/>
      <path class="cls-1" d="M74.21,369.94c3.22-.34,6.14-1.54,9.74-4.13l.14.24c-3.89,8.26-10.42,11.43-14.93,11.43-3.89,0-6-2.4-6-7.06,0-9.65,8.98-18.91,18.39-18.91,3.55,0,6.34,1.25,6.34,3.89s-2.98,4.37-5.9,4.42l-1.49-6c-3.46,2.21-6.91,9.12-6.29,16.13Z"/>
      <path class="cls-1" d="M123.26,379.73c-2.26,3.94-5.04,5.81-9.79,5.81-7.68,0-12.82-4.75-13.97-17.43,5.04-2.16,8.11-6.19,8.11-8.93,0-.82-.29-1.25-.86-1.25-2.59,0-8.54,7.63-12.43,18.34l-.24.72h-10.56l10.9-30.82c-1.25.24-2.45.91-3.46,1.68l-.14-.24c4.94-7.3,9.84-8.83,12.62-8.83,3.07,0,3.46,1.82,2.88,3.55l-6.62,18.67c3.89-6.58,7.39-9.5,12.15-9.5,4.18,0,5.62,2.26,5.62,4.99,0,3.7-2.88,7.58-8.06,10.46,2.11,11.86,6.34,13.78,9.27,13.78,1.63,0,3.12-.48,4.46-1.25l.14.24Z"/>
      <path class="cls-1" d="M126.62,370.09l6.43-14.4h-4.46l19.59-10.27-2.93,6.58h5.95l-1.63,3.7h-5.95l-6.43,14.4c2.64-.29,5.33-1.01,7.97-2.35l.14.24c-5.09,7.06-10.71,9.5-14.83,9.5-5.42,0-5.23-4.27-3.84-7.39Z"/>
      <path class="cls-1" d="M175.49,360.77c0,9.94-10.37,16.71-18.1,16.71-5.09,0-9.41-2.88-9.41-9.27,0-9.89,10.32-16.71,18.05-16.71,5.14,0,9.46,2.88,9.46,9.26ZM165.55,356.79c0-.91-.05-1.82-.19-2.54-3.46,3.26-7.49,10.8-7.49,17.95,0,.96.1,1.82.19,2.59,3.5-3.26,7.49-10.8,7.49-18Z"/>
      <path class="cls-1" d="M210.05,354.44c.72.96,1.15,2.16,1.15,3.7,0,5.71-5.66,9.02-11.23,10.03-1.87.72-2.83,1.58-2.83,2.69,0,3.94,11.38,2.5,11.38,9.31,0,6.14-9.31,8.83-18.48,8.83-9.74,0-11.95-3.02-11.95-5.81,0-4.08,4.51-6.19,10.27-7.78-.05-.24-.05-.48-.05-.77,0-3.22,3.31-4.94,7.39-6.19-3.98-.19-8.11-1.78-8.11-6.62,0-6.91,8.3-10.32,14.64-10.32,2.06,0,4.22.34,5.9,1.3.48-.38.91-.82,1.25-1.3l-3.22-2.54c.67-2.02,2.4-3.22,4.51-3.22s3.65,1.2,3.65,3.5-1.68,3.94-4.27,5.18ZM189.4,377.33c-1.82,1.49-2.78,2.93-2.78,4.8,0,2.26,1.39,4.18,4.85,4.18,3.07,0,6.43-1.49,6.43-3.65,0-2.83-6-2.78-8.5-5.33ZM202.17,356.5c0-1.01-.1-2.06-.48-3.02-3.46,2.21-5.09,6.34-5.09,9.99,0,1.06.1,2.06.53,3.02,3.41-2.21,5.04-6.34,5.04-9.99Z"/>
      <path class="cls-1" d="M225.88,368.6c-5.62,7.39-10.71,8.88-13.54,8.88-3.02,0-3.26-1.73-2.45-3.55l6.67-15.03c-1.2.29-2.5.91-3.6,1.73l-.14-.24c5.62-7.34,10.71-8.88,13.49-8.88,3.17,0,3.26,1.92,2.54,3.6l-6.72,14.98c1.15-.29,2.45-.91,3.6-1.73l.14.24ZM221.71,345.17c0-3.26,3.5-6.14,6.62-6.14,2.3,0,3.94,1.82,3.94,4.03,0,3.22-3.5,6.14-6.62,6.14-2.35,0-3.94-1.82-3.94-4.03Z"/>
      <path class="cls-1" d="M229,360.39c5.62-7.34,10.71-8.88,13.54-8.88,3.12,0,3.22,1.92,2.5,3.6l-7.63,17.28c6.1-3.12,10.13-10.37,11.04-19.54,3.36-1.1,8.4-1.49,11.81-.86-7.34,17.71-22.51,25.49-28.99,25.49-4.03,0-5.57-2.79-3.79-6.72l5.23-11.86c-1.15.29-2.45.91-3.55,1.73l-.14-.24Z"/>
      <path class="cls-1" d="M266.3,366.29c-.19,1.39-.29,2.78-.14,4.03,3.22-.29,7.3-1.68,10.9-4.13l.14.24c-3.89,8.35-11.09,11.04-15.41,11.04s-6.29-2.69-6.29-7.06c0-9.89,9.46-18.91,19.44-18.91,4.75,0,6.72,2.06,6.72,4.7,0,4.27-5.23,7.87-15.36,10.08ZM266.68,364.08c4.8-2.35,6.91-6.34,6.91-8.3,0-.67-.24-1.1-.96-1.1-2.26,0-4.8,4.56-5.95,9.41Z"/>
      <path class="cls-1" d="M283.29,373.69c0-2.93,3.17-5.66,6.1-5.66,2.16,0,3.65,1.68,3.65,3.74,0,2.98-3.22,5.66-6.14,5.66-2.16,0-3.6-1.68-3.6-3.74ZM291.55,364.47h-2.35l1.82-23.86h11.47l-10.95,23.86Z"/>
    </g>
    <polygon class="cls-1" points="392.39 328.2 431.12 362.74 370.47 396.46 376.94 376.33 317.97 375.85 326.85 348.19 385.82 348.67 392.39 328.2"/>
  </g>
</svg>