<?xml version="1.0" encoding="UTF-8"?>
<svg id="Layer_2" data-name="Layer 2" xmlns="http://www.w3.org/2000/svg" viewBox="0 0 427.43 309.91">
  <defs>
    <style>
      .cls-1 {
        fill: #ffffff;
        stroke-width: 0px;
      }
    </style>
  </defs>
  <g id="Layer_1-2" data-name="Layer 1">
    <g>
      <g>
        <path class="cls-1" d="M16.9,144.73c0,5.14,11.9,5.76,11.9,15.27,0,8.5-9.5,11.38-16.47,11.38-3.22,0-5.76-.58-8.16-1.63l-4.18,1.58,3.31-12.48,3.65,8.26c1.3.77,2.74,1.3,4.46,1.3,4.18,0,6.14-2.83,6.14-5.18,0-5.57-11.47-6.38-11.47-14.79,0-6.77,7.39-11.62,16.13-11.62,2.93,0,5.14.53,7.06,1.3l3.84-1.3-3.22,12.1-3.94-8.74c-.86-.38-1.82-.58-2.93-.58-4.46,0-6.14,3.12-6.14,5.14Z"/>
        <path class="cls-1" d="M41.76,163.84c3.22-.34,6.14-1.54,9.74-4.13l.14.24c-3.89,8.26-10.42,11.42-14.93,11.42-3.89,0-6-2.4-6-7.06,0-9.65,8.98-18.91,18.39-18.91,3.55,0,6.34,1.25,6.34,3.89s-2.98,4.37-5.9,4.42l-1.49-6c-3.46,2.21-6.91,9.12-6.29,16.13Z"/>
        <path class="cls-1" d="M83.43,149.63c0,4.22-4.8,7.2-8.93,6.82l-.82-3.12c-3.94,2.69-8.59,10.27-11.81,17.57h-10.56l8.02-18.1c-1.2.29-2.45.91-3.6,1.73l-.14-.24c5.62-7.34,10.27-8.88,13.06-8.88,3.17,0,3.31,1.87,2.54,3.6l-4.18,8.93c5.09-9.36,8.26-12.53,12.19-12.53,2.64,0,4.22,1.73,4.22,4.22Z"/>
        <path class="cls-1" d="M108.05,154.67c0,9.94-10.37,16.71-18.1,16.71-5.09,0-9.41-2.88-9.41-9.26,0-9.89,10.32-16.71,18.05-16.71,5.14,0,9.46,2.88,9.46,9.26ZM98.11,150.69c0-.91-.05-1.82-.19-2.54-3.46,3.26-7.49,10.8-7.49,17.95,0,.96.1,1.82.19,2.59,3.5-3.26,7.49-10.8,7.49-18Z"/>
        <path class="cls-1" d="M122.45,162.5c-4.94,7.34-9.89,8.88-12.67,8.88-3.07,0-3.41-1.73-2.74-3.55l9.79-27.75c-1.25.24-2.45.91-3.46,1.68l-.14-.24c4.94-7.3,9.84-8.83,12.63-8.83,3.07,0,3.46,1.82,2.88,3.55l-9.84,27.75c1.1-.29,2.35-.91,3.41-1.73l.14.24Z"/>
        <path class="cls-1" d="M137.76,162.5c-4.94,7.34-9.89,8.88-12.67,8.88-3.07,0-3.41-1.73-2.74-3.55l9.79-27.75c-1.25.24-2.45.91-3.46,1.68l-.14-.24c4.94-7.3,9.84-8.83,12.63-8.83,3.07,0,3.46,1.82,2.88,3.55l-9.84,27.75c1.1-.29,2.35-.91,3.41-1.73l.14.24Z"/>
        <path class="cls-1" d="M149.08,163.98l6.43-14.4h-4.46l19.59-10.27-2.93,6.58h5.95l-1.63,3.7h-5.95l-6.43,14.4c2.64-.29,5.33-1.01,7.97-2.35l.14.24c-5.09,7.06-10.71,9.5-14.83,9.5-5.42,0-5.23-4.27-3.84-7.39Z"/>
        <path class="cls-1" d="M197.95,154.67c0,9.94-10.37,16.71-18.1,16.71-5.09,0-9.41-2.88-9.41-9.26,0-9.89,10.32-16.71,18.05-16.71,5.14,0,9.46,2.88,9.46,9.26ZM188.01,150.69c0-.91-.05-1.82-.19-2.54-3.46,3.26-7.49,10.8-7.49,17.95,0,.96.1,1.82.19,2.59,3.5-3.26,7.49-10.8,7.49-18Z"/>
        <path class="cls-1" d="M218.49,160.19c-.19,1.39-.29,2.78-.14,4.03,3.22-.29,7.3-1.68,10.9-4.13l.14.24c-3.89,8.35-11.09,11.04-15.41,11.04s-6.29-2.69-6.29-7.06c0-9.89,9.46-18.91,19.44-18.91,4.75,0,6.72,2.06,6.72,4.7,0,4.27-5.23,7.87-15.36,10.08ZM218.88,157.98c4.8-2.35,6.91-6.34,6.91-8.3,0-.67-.24-1.1-.96-1.1-2.26,0-4.8,4.56-5.95,9.41Z"/>
        <path class="cls-1" d="M250.6,155.92l4.32,9.46c.96-.91,1.82-2.02,2.54-3.31h.24c-1.49,6.48-4.51,9.31-8.5,9.31-1.97,0-3.17-.77-4.56-3.6l-1.82-3.98c-4.03,5.52-6.38,7.58-9.27,7.58-2.54,0-3.89-1.54-3.89-3.65,0-3.12,2.93-5.14,6.19-5.42l1.44,3.07c1.54-1.2,2.74-2.21,4.42-4.03l-4.46-9.94c-1.01.91-1.87,2.06-2.59,3.36h-.24c1.49-6.53,4.51-9.36,8.5-9.36,2.02,0,3.22.77,4.56,3.65l2.06,4.51c4.32-5.9,6.72-8.16,9.7-8.16,2.5,0,3.84,1.54,3.84,3.65,0,3.12-2.93,5.14-6.14,5.42l-1.44-3.07c-1.63,1.3-2.98,2.4-4.9,4.51Z"/>
        <path class="cls-1" d="M269.47,171.09l-2.69,7.3,2.16,4.03h-16.27l3.12-2.88,9.84-26.79c-1.06.53-2.16,1.1-3.36,1.78l-.14-.24c1.39-1.34,2.78-2.5,4.22-3.55l2.4-6.48,11.81-3.6-1.78,4.8c6.53-.86,11.47,1.87,11.47,7.92,0,10.08-13.92,16.71-20.79,17.71ZM277.15,150.01l-6.67,18.24c4.85-2.11,8.88-8.21,8.88-13.54,0-2.4-.67-4.03-2.21-4.7Z"/>
        <path class="cls-1" d="M303.98,162.5c-4.94,7.34-9.89,8.88-12.67,8.88-3.07,0-3.41-1.73-2.74-3.55l9.79-27.75c-1.25.24-2.45.91-3.46,1.68l-.14-.24c4.94-7.3,9.84-8.83,12.62-8.83,3.07,0,3.46,1.82,2.88,3.55l-9.84,27.75c1.1-.29,2.35-.91,3.41-1.73l.14.24Z"/>
        <path class="cls-1" d="M333.45,154.67c0,9.94-10.37,16.71-18.1,16.71-5.09,0-9.41-2.88-9.41-9.26,0-9.89,10.32-16.71,18.05-16.71,5.14,0,9.46,2.88,9.46,9.26ZM323.52,150.69c0-.91-.05-1.82-.19-2.54-3.46,3.26-7.49,10.8-7.49,17.95,0,.96.1,1.82.19,2.59,3.5-3.26,7.49-10.8,7.49-18Z"/>
        <path class="cls-1" d="M363.69,149.63c0,4.22-4.8,7.2-8.93,6.82l-.82-3.12c-3.94,2.69-8.59,10.27-11.81,17.57h-10.56l8.02-18.1c-1.2.29-2.45.91-3.6,1.73l-.14-.24c5.62-7.34,10.27-8.88,13.06-8.88,3.17,0,3.31,1.87,2.54,3.6l-4.18,8.93c5.09-9.36,8.26-12.53,12.19-12.53,2.64,0,4.22,1.73,4.22,4.22Z"/>
        <path class="cls-1" d="M371.08,160.19c-.19,1.39-.29,2.78-.14,4.03,3.22-.29,7.3-1.68,10.9-4.13l.14.24c-3.89,8.35-11.09,11.04-15.41,11.04s-6.29-2.69-6.29-7.06c0-9.89,9.46-18.91,19.44-18.91,4.75,0,6.72,2.06,6.72,4.7,0,4.27-5.23,7.87-15.36,10.08ZM371.47,157.98c4.8-2.35,6.91-6.34,6.91-8.3,0-.67-.24-1.1-.96-1.1-2.26,0-4.8,4.56-5.95,9.41Z"/>
        <path class="cls-1" d="M385.1,166.96c0-3.55,3.84-6.82,7.2-6.82,2.64,0,4.42,2.02,4.42,4.46,0,3.55-3.84,6.77-7.2,6.77-2.69,0-4.42-2.02-4.42-4.42Z"/>
        <path class="cls-1" d="M400.46,166.96c0-3.55,3.84-6.82,7.2-6.82,2.64,0,4.42,2.02,4.42,4.46,0,3.55-3.84,6.77-7.2,6.77-2.69,0-4.42-2.02-4.42-4.42Z"/>
        <path class="cls-1" d="M415.82,166.96c0-3.55,3.84-6.82,7.2-6.82,2.64,0,4.42,2.02,4.42,4.46,0,3.55-3.84,6.77-7.2,6.77-2.69,0-4.42-2.02-4.42-4.42Z"/>
      </g>
      <polygon class="cls-1" points="252.92 47.44 231.88 0 181.23 47.44 202.38 47.44 184.81 103.73 213.86 103.73 231.43 47.44 252.92 47.44"/>
      <polygon class="cls-1" points="121.94 262.47 142.98 309.91 193.63 262.47 172.48 262.47 190.05 206.18 161 206.18 143.43 262.47 121.94 262.47"/>
    </g>
  </g>
</svg>